# xmcd CD database file
#
# Track frame offsets:
#	150
#	9978
#	18793
#	36820
#	62619
#	97611
#	118144
#	138419
#	147959
#	168196
#	189243
#	207643
#	244286
#	265387
#	273087
#	282848
#	330860
#
# Disc length: 4543 seconds
#
# Revision: 0
# Processed by: cddbd v1.5.2PL0 Copyright (c) Steve Scherf et al.
# Submitted via: CDex 1.51
#
DISCID=e311bd11
DTITLE=Aventura - En Vivo
DYEAR=1900
DGENRE=Merengue
TTITLE0=Intro
TTITLE1=Mi Corazoncito
TTITLE2=El Peredor
TTITLE3=JOSE
TTITLE4=Me Voy
TTITLE5=Angelito
TTITLE6=Hermanita
TTITLE7=Un Besco
TTITLE8=Los Infieles
TTITLE9=La Pericula
TTITLE10=A veces quiero llorar
TTITLE11=Ensename A Olividar
TTITLE12=Todavia Me Amas
TTITLE13=9 15
TTITLE14=Mujeriego
TTITLE15=Medley Exitos (Live)
TTITLE16=Ciego de Amor Ft. Antony Santos
EXTD=
EXTT0=
EXTT1=
EXTT2=
EXTT3=
EXTT4=
EXTT5=
EXTT6=
EXTT7=
EXTT8=
EXTT9=
EXTT10=
EXTT11=
EXTT12=
EXTT13=
EXTT14=
EXTT15=
EXTT16=
PLAYORDER=
